# xmcd CD database file
#
# Track frame offsets:
#	150
#	35100
#	84075
#	109275
#	132225
#	167625
#	208650
#	236550
#
# Disc length: 3565 seconds
#
# Revision: 0
# Processed by: cddbd v1.5.2PL0 Copyright (c) Steve Scherf et al.
# Submitted via: CDex 1.81
#
DISCID=670deb08
DTITLE=Nak Trio and Arcos - Ambush
DYEAR=2017
DGENRE=Jazz
TTITLE0=Rift
TTITLE1=Ambush
TTITLE2=Hard to Fathom
TTITLE3=Hereafter
TTITLE4=Fuge
TTITLE5=Expats
TTITLE6=Tanquo
TTITLE7=Do You Really Need All This Money
EXTD=YEAR: 2017
EXTT0=
EXTT1=
EXTT2=
EXTT3=
EXTT4=
EXTT5=
EXTT6=
EXTT7=
PLAYORDER=
